<?xml version="1.0" encoding="UTF-8"?>
<svg id="Layer_1" xmlns="http://www.w3.org/2000/svg" version="1.1" viewBox="0 0 512 512">
  <!-- Generator: Adobe Illustrator 30.8.1, SVG Export Plug-In . SVG Version: 2.1.4 Build 1)  -->
  <defs>
    <style>
      .st0 {
        fill-rule: evenodd;
      }
    </style>
  </defs>
  <path class="st0" d="M150.81,299.03c0-.14,0-.28-.03-.42v-.08c-4.84-22.53-10.5-57.87-7.85-91.51,5.16-65.62,37.92-97.98,57.78-111.68,10.14-6.99,17-2.24,20.63,5.58.91,3.06-.25,6.41-3.06,8.02-13.75,7.88-49.32,34.38-54.47,99.71-2.64,33.6,4.03,70.27,8.72,90.92,2.57,8.12,10.82,25.54,10.82,46.77,0,10.68-1.85,17.8-4.12,22.5-2.01,4.14,1.08,8.93,5.69,8.93h167.45c3.87,0,7-3.13,7-7v-34.23c0-5.95-1.34-11.87-4.15-17.11-26.52-49.39-62.18-79.09-83.75-93.75-5.07-3.45-2.58-11.35,3.55-11.35h33.79c3.44,0,6.38,2.37,7.16,5.71,2.13,9.14,9.18,20.06,30.83,19.43,28.47-.83,35.74-35.97,37.33-47.01.29-2.04-.46-4.07-1.99-5.47l-68.35-62.65c-2.34-2.14-4.74-6.47-4.71-9.64.04-4.46-2.34-8.59-6.21-10.8l-33.37-19.07c-1.07-.61-1.61-1.85-1.38-3.05,2.74-14.82,2.21-26.89,1.61-32.95-.21-2.14-2.49-3.48-4.42-2.54-17.06,8.32-26.25,23.77-30.59,33.51-.53,1.19-2.07,1.5-2.99.58l-2.81-2.81c-4.93-4.93-12.37-6.47-18.82-3.83-61.09,25.01-89.6,83.81-89.6,140.57,0,46.7,7.6,73.98,10.98,83.81.88,2.54,3.25,4.2,5.94,4.2h10.09c1.83,0,3.31-1.48,3.31-3.31ZM271.36,120.04c6.94,0,12.57,5.63,12.57,12.57s-5.63,12.57-12.57,12.57-12.57-5.63-12.57-12.57,5.63-12.57,12.57-12.57Z"/>
  <path class="st0" d="M388.56,433.45l-17.7-13.27c-1.86-1.39-2.95-3.58-2.95-5.9v-7.01c0-4.07-3.3-7.37-7.37-7.37h-188.74c-4.07,0-7.37,3.3-7.37,7.37v7.02c0,2.32-1.09,4.51-2.95,5.9l-17.69,13.27c-1.86,1.39-2.95,3.58-2.95,5.9v19.27c0,4.07,3.3,7.37,7.37,7.37h235.93c4.07,0,7.37-3.3,7.37-7.37v-19.27c0-2.32-1.09-4.51-2.95-5.9Z"/>
</svg>