<?xml version="1.0" encoding="UTF-8"?>
<svg id="Layer_1" xmlns="http://www.w3.org/2000/svg" version="1.1" viewBox="0 0 512 512">
  <!-- Generator: Adobe Illustrator 30.8.1, SVG Export Plug-In . SVG Version: 2.1.4 Build 1)  -->
  <path d="M305.43,141.63c.92,1.29,2.4,2.05,3.99,2.05h52.9c3.99,0,6.3-4.5,3.99-7.75l-23.11-32.36c-.92-1.29-2.4-2.05-3.99-2.05h-52.9c-3.99,0-6.3,4.5-3.99,7.75l23.11,32.36Z"/>
  <path d="M424,101.53h-46.95c-3.99,0-6.3,4.5-3.99,7.75l23.11,32.36c.92,1.29,2.4,2.05,3.99,2.05h23.84c7.73,0,14-6.27,14-14v-14.16c0-7.73-6.27-14-14-14Z"/>
  <path d="M200.89,140.46c1.44,2.02,3.77,3.22,6.25,3.22h64.42c3.99,0,6.3-4.5,3.99-7.75l-23.11-32.36c-.92-1.29-2.4-2.05-3.99-2.05h-68.57c-2.85,0-4.5,3.22-2.85,5.53l23.86,33.4Z"/>
  <path d="M408.83,164.8h-215.04c-2.26,0-4.38-1.09-5.7-2.93l-38.91-54.48c-2.63-3.68-6.87-5.86-11.39-5.86h-49.79c-7.73,0-14,6.27-14,14v265.78c0,16.11,13.06,29.17,29.17,29.17h305.66c16.11,0,29.17-13.06,29.17-29.17v-187.34c0-16.11-13.06-29.17-29.17-29.17ZM333.2,296.62l-109.33,57.62c-6.81,3.59-14.99-1.35-14.99-9.04v-115.23c0-7.69,8.18-12.63,14.99-9.04l109.33,57.62c7.28,3.83,7.28,14.25,0,18.09Z"/>
</svg>