<?xml version="1.0" encoding="UTF-8"?>
<svg id="Layer_1" xmlns="http://www.w3.org/2000/svg" version="1.1" viewBox="0 0 512 512">
  <!-- Generator: Adobe Illustrator 30.8.1, SVG Export Plug-In . SVG Version: 2.1.4 Build 1)  -->
  <defs>
    <style>
      .st0 {
        fill-rule: evenodd;
      }
    </style>
  </defs>
  <path class="st0" d="M383.58,111.13c-2.99-2.56-7.55-2.04-10,1.04l-7.44,9.35c-8.88,11.15-7.88,26.88,1.69,37.45,26.85,29.68,42.09,70.02,38.4,113.87-5.98,70.92-62.26,128.95-133,136.83-90.81,10.12-167.99-61-167.99-149.81,0-38.8,14.78-74.18,38.96-100.91,9.56-10.56,10.54-26.29,1.67-37.43l-7.45-9.35c-2.45-3.08-7.01-3.6-10-1.04-46.71,40.1-74.35,101.76-67.34,169.59,9.36,90.58,81.9,163.8,172.41,173.88,118.33,13.18,218.51-79.08,218.51-194.74,0-59.51-26.55-112.79-68.42-148.73Z"/>
  <path class="st0" d="M240.37,259.46h31.25c3.48,0,6.44-2.56,6.93-6.01l21.58-151.53c.31-2.16-.41-4.34-1.94-5.9l-37.2-37.79c-2.74-2.79-7.23-2.79-9.98,0l-37.2,37.79c-1.53,1.56-2.25,3.74-1.94,5.9l21.58,151.53c.49,3.45,3.45,6.01,6.93,6.01Z"/>
</svg>