<?xml version="1.0" encoding="UTF-8"?>
<svg id="Layer_1" xmlns="http://www.w3.org/2000/svg" version="1.1" viewBox="0 0 512 512">
  <!-- Generator: Adobe Illustrator 30.8.1, SVG Export Plug-In . SVG Version: 2.1.4 Build 1)  -->
  <path d="M273.36,228.81c2.14,2.14,5.75.71,5.93-2.31,2.46-42.38,10.19-81.27,22.42-111.65l1.31-3.25c1.44-3.59,5.52-5.32,9.11-3.88l6.49,2.61c3.59,1.44,5.32,5.52,3.88,9.11l-1.31,3.24c-9.01,22.38-15.45,50.83-18.88,81.83-.4,3.57,2.01,6.85,5.52,7.63,20.18,4.47,35.27,22.39,35.27,43.85,0,9.69-3.15,18.58-8.4,25.89-1.99,2.77-1.69,6.56.72,8.97l44.43,44.43c4.04,4.04,10.95,1.83,11.89-3.8,3.85-23.12,5.99-48.65,5.99-75.49,0-104.38-32.26-189-72.06-189-8.62,0-16.89,3.98-24.55,11.27h0s-89.5,78.22-89.5,78.22c-3.05,2.67-3.21,7.36-.34,10.22l62.1,62.1Z"/>
  <path d="M315.94,360.49c-1.51-1.51-4.09-.03-3.53,2.04,2.57,9.62,5.5,18.62,8.78,26.78l1.31,3.24c1.44,3.59-.29,7.66-3.88,9.11l-6.49,2.61c-3.59,1.44-7.66-.29-9.11-3.88l-1.31-3.25c-7.5-18.62-13.25-40.48-17.19-64.34-.48-2.87-1.82-5.56-3.88-7.62l-137.44-137.44c-2.26-2.26-5.77-2.71-8.54-1.11-12.18,7.03-20.38,20.14-20.38,35.18v68.37c0,22.45,18.26,40.64,40.77,40.64h23.06c3.39,0,6.66,1.23,9.21,3.46l113.78,99.45h0c7.66,7.27,15.93,11.26,24.55,11.26,14.11,0,27.27-10.67,38.38-29.06,1.64-2.71,1.13-6.23-1.11-8.47l-46.98-46.98Z"/>
  <path d="M444.1,429.26L82.74,67.9c-4.1-4.1-10.75-4.1-14.85,0-4.1,4.1-4.1,10.75,0,14.85l361.36,361.36c2.05,2.05,4.74,3.08,7.42,3.08s5.37-1.03,7.42-3.08c4.1-4.1,4.1-10.75,0-14.85Z"/>
</svg>